<?xml version="1.0" encoding="UTF-8" standalone="no"?>
<!-- Created with Inkscape (http://www.inkscape.org/) -->

<svg
   width="30.48mm"
   height="128.49998mm"
   viewBox="0 0 30.480002 128.5"
   version="1.1"
   id="svg8"
   inkscape:version="1.4 (e7c3feb100, 2024-10-09)"
   sodipodi:docname="Fractal-FM.svg"
   inkscape:export-filename="Fractal-FM.svg"
   inkscape:export-xdpi="96"
   inkscape:export-ydpi="96"
   xmlns:inkscape="http://www.inkscape.org/namespaces/inkscape"
   xmlns:sodipodi="http://sodipodi.sourceforge.net/DTD/sodipodi-0.dtd"
   xmlns="http://www.w3.org/2000/svg"
   xmlns:svg="http://www.w3.org/2000/svg"
   xmlns:rdf="http://www.w3.org/1999/02/22-rdf-syntax-ns#"
   xmlns:cc="http://creativecommons.org/ns#"
   xmlns:dc="http://purl.org/dc/elements/1.1/">
  <defs
     id="defs2" />
  <sodipodi:namedview
     id="base"
     pagecolor="#ffffff"
     bordercolor="#666666"
     borderopacity="1.0"
     inkscape:pageopacity="0.0"
     inkscape:pageshadow="2"
     inkscape:zoom="1.979899"
     inkscape:cx="53.790623"
     inkscape:cy="220.46579"
     inkscape:document-units="mm"
     inkscape:current-layer="layer2"
     showgrid="false"
     units="mm"
     inkscape:snap-bbox="true"
     inkscape:snap-page="true"
     inkscape:bbox-nodes="false"
     inkscape:snap-bbox-edge-midpoints="false"
     inkscape:window-width="2560"
     inkscape:window-height="1415"
     inkscape:window-x="0"
     inkscape:window-y="0"
     inkscape:window-maximized="0"
     inkscape:snap-bbox-midpoints="true"
     inkscape:snap-nodes="false"
     inkscape:showpageshadow="2"
     inkscape:pagecheckerboard="0"
     inkscape:deskcolor="#d1d1d1">
    <inkscape:page
       x="0"
       y="0"
       width="30.480001"
       height="128.5"
       id="page2"
       margin="0"
       bleed="0" />
  </sodipodi:namedview>
  <metadata
     id="metadata5">
    <rdf:RDF>
      <cc:Work
         rdf:about="">
        <dc:format>image/svg+xml</dc:format>
        <dc:type
           rdf:resource="http://purl.org/dc/dcmitype/StillImage" />
      </cc:Work>
    </rdf:RDF>
  </metadata>
  <g
     inkscape:label="Layer 1"
     inkscape:groupmode="layer"
     id="layer1"
     transform="translate(0,-168.49998)">
    <rect
       style="display:inline;opacity:1;vector-effect:none;fill:#e6e6e6;fill-opacity:1;fill-rule:evenodd;stroke:none;stroke-width:0.649358;stroke-linecap:butt;stroke-linejoin:miter;stroke-miterlimit:4;stroke-dasharray:none;stroke-dashoffset:0;stroke-opacity:1;paint-order:normal"
       id="rect420"
       width="30.48"
       height="128.5"
       x="5.9211732e-17"
       y="168.49997" />
    <path
       style="font-size:4.47101px;font-family:'Fira Code';-inkscape-font-specification:'Fira Code';stroke-width:0.372584"
       d="m 2.2648902,175.2387 v 1.10515 h 1.2381259 v 0.32099 H 2.2648902 v 1.4055 H 1.8705241 v -3.15722 h 1.8594817 l -0.048149,0.32558 z m 2.2057003,2.83164 v -0.29577 h 0.3760234 v -1.8228 H 4.4705905 V 175.656 h 0.6695051 l 0.071078,0.57091 q 0.139862,-0.29807 0.3393378,-0.46086 0.1994758,-0.16279 0.5273499,-0.16279 0.1008844,0 0.1788404,0.0161 0.080249,0.0138 0.1627907,0.0367 l -0.1123485,0.34392 q -0.075663,-0.0206 -0.1375695,-0.0298 -0.061906,-0.0115 -0.1421552,-0.0115 -0.277432,0 -0.4769078,0.19718 -0.1994758,0.19719 -0.3187028,0.59614 v 1.0226 h 0.4906647 v 0.29577 z m 1.5774641,-1.5981 v -0.52505 l 0.038978,-0.29119 h 0.3324598 l -0.055028,0.81624 z m 2.8797911,1.07075 q 0,0.14445 0.048149,0.21094 0.048149,0.0665 0.1490337,0.0986 l -0.094006,0.27056 q -0.1559121,-0.0206 -0.2728462,-0.0986 -0.1169341,-0.0802 -0.1696691,-0.24075 -0.1306911,0.16738 -0.3255813,0.2545 -0.1948902,0.0848 -0.4310512,0.0848 -0.3622665,0 -0.5709136,-0.20406 -0.2086472,-0.20406 -0.2086472,-0.54111 0,-0.37373 0.2911889,-0.57321 0.2911889,-0.19947 0.841467,-0.19947 h 0.355388 v -0.20177 q 0,-0.26138 -0.1536193,-0.36915 -0.1513265,-0.11005 -0.4218799,-0.11005 -0.119227,0 -0.2797248,0.0298 -0.1604978,0.0275 -0.3485095,0.094 l -0.1008843,-0.29119 q 0.2224041,-0.0825 0.4172943,-0.11693 0.1948901,-0.0344 0.3714377,-0.0344 0.4516867,0 0.6763836,0.21094 0.2269898,0.20864 0.2269898,0.56862 z m -0.9973792,0.28661 q 0.1788404,0 0.341631,-0.0894 0.1627906,-0.0917 0.2682606,-0.25221 v -0.62136 H 8.1918486 q -0.3989517,0 -0.5640351,0.13757 -0.1627907,0.13757 -0.1627907,0.36914 0,0.2247 0.1146413,0.34164 0.1169341,0.11464 0.3508024,0.11464 z m 3.1113665,-0.039 q 0.181133,0 0.337045,-0.0596 0.158205,-0.0596 0.291189,-0.15133 l 0.188012,0.25221 q -0.158205,0.13528 -0.380609,0.21323 -0.222404,0.078 -0.435637,0.078 -0.359974,0 -0.614477,-0.15362 -0.252211,-0.15591 -0.385195,-0.43564 -0.1329835,-0.28202 -0.1329835,-0.66033 0,-0.36227 0.1329835,-0.64887 0.135277,-0.2889 0.387487,-0.45398 0.254504,-0.16508 0.616771,-0.16508 0.231575,0 0.433344,0.0711 0.204061,0.0688 0.37373,0.20865 l -0.188011,0.2568 q -0.15362,-0.10777 -0.309532,-0.1605 -0.153619,-0.055 -0.314117,-0.055 -0.311824,0 -0.513593,0.23387 -0.201769,0.23387 -0.201769,0.71307 0,0.32099 0.09171,0.52506 0.09401,0.20176 0.254504,0.29806 0.162791,0.094 0.369145,0.094 z m 3.57681,0.1582 q -0.123813,0.0825 -0.300361,0.1284 -0.176547,0.0459 -0.346216,0.0459 -0.389781,0 -0.600721,-0.20406 -0.21094,-0.20406 -0.21094,-0.52506 v -1.4399 H 12.605542 V 175.656 h 0.554863 v -0.54799 l 0.385195,-0.0459 v 0.59384 h 0.834589 l -0.04586,0.29806 h -0.788732 v 1.43531 q 0,0.20177 0.10547,0.30724 0.107763,0.10547 0.355388,0.10547 0.135277,0 0.249918,-0.0321 0.114641,-0.0321 0.213233,-0.0825 z m 2.56338,-0.40583 q 0,0.14445 0.04815,0.21094 0.04815,0.0665 0.149033,0.0986 l -0.09401,0.27056 q -0.155912,-0.0206 -0.272846,-0.0986 -0.116934,-0.0802 -0.169669,-0.24075 -0.130691,0.16738 -0.325581,0.2545 -0.19489,0.0848 -0.431051,0.0848 -0.362267,0 -0.570914,-0.20406 -0.208647,-0.20407 -0.208647,-0.54111 0,-0.37373 0.291189,-0.57321 0.291188,-0.19947 0.841467,-0.19947 h 0.355388 v -0.20177 q 0,-0.26138 -0.15362,-0.36915 -0.151326,-0.11005 -0.42188,-0.11005 -0.119227,0 -0.279724,0.0298 -0.160498,0.0275 -0.34851,0.094 l -0.10088,-0.29119 q 0.222404,-0.0825 0.417294,-0.11693 0.19489,-0.0344 0.371438,-0.0344 0.451687,0 0.676383,0.21094 0.22699,0.20864 0.22699,0.56862 z m -0.997379,0.28661 q 0.17884,0 0.341631,-0.0894 0.162791,-0.0917 0.268261,-0.25221 v -0.62136 h -0.34851 q -0.398952,0 -0.564035,0.13757 -0.162791,0.13757 -0.162791,0.36914 0,0.2247 0.114642,0.34164 0.116934,0.11464 0.350802,0.11464 z m 2.960041,-3.14576 v 2.79037 q 0,0.17884 0.110056,0.2545 0.112349,0.0734 0.288896,0.0734 0.110056,0 0.208647,-0.0229 0.09859,-0.0229 0.197183,-0.0619 l 0.103177,0.28202 q -0.09859,0.0481 -0.245332,0.0848 -0.144448,0.039 -0.327874,0.039 -0.320996,0 -0.520471,-0.17655 -0.199476,-0.17884 -0.199476,-0.49296 v -2.46478 h -0.740583 v -0.30495 z m 1.806749,2.11857 v -0.33475 h 1.838846 v 0.33475 z m 3.324598,-1.56371 v 1.10515 h 1.238126 v 0.32099 h -1.238126 v 1.4055 h -0.394366 v -3.15722 h 1.859482 l -0.04815,0.32558 z m 4.154602,-0.32558 0.178841,3.15722 h -0.382902 l -0.09859,-1.64854 q -0.0069,-0.16737 -0.01376,-0.33934 -0.0069,-0.17196 -0.0092,-0.33016 -0.0023,-0.15821 -0.0023,-0.28202 0,-0.12381 0,-0.1926 l -0.531899,2.22634 h -0.398951 l -0.570914,-2.22634 q 0.0023,0.0665 0.0046,0.19718 0.0023,0.1284 0.0023,0.29119 0.0023,0.16279 -0.0023,0.33476 -0.0023,0.16966 -0.0092,0.31641 l -0.08483,1.65312 h -0.373731 l 0.178841,-3.15722 h 0.554864 l 0.5113,2.16214 0.488372,-2.16214 z"
       id="text8"
       aria-label="Fractal-FM" />
    <path
       d="m 11.840305,183.78789 q 0,-0.17422 -0.06839,-0.27516 -0.06838,-0.10258 -0.187243,-0.14654 -0.118859,-0.0456 -0.271911,-0.0456 h -0.324012 v 0.95738 h 0.312615 q 0.157936,0 0.278423,-0.0423 0.120487,-0.044 0.1905,-0.1498 0.07001,-0.10746 0.07001,-0.29796 z m 0.302846,-0.003 q 0,0.26214 -0.112346,0.42007 -0.110718,0.15794 -0.306103,0.22958 -0.195384,0.0716 -0.449384,0.0716 h -0.286564 v 0.83201 h -0.283308 v -2.24203 h 0.573128 q 0.400538,0 0.631744,0.16933 0.232833,0.1677 0.232833,0.5194 z m 1.33513,-0.1612 v 1.49795 h 0.483576 v 0.21655 h -1.286282 v -0.21655 h 0.529167 v -1.28139 h -0.512885 v -0.21656 z m -0.21818,-0.8027 q 0.09118,0 0.14491,0.0554 0.05536,0.0554 0.05536,0.13514 0,0.083 -0.05536,0.14002 -0.05373,0.0554 -0.14491,0.0554 -0.08629,0 -0.141654,-0.0554 -0.05536,-0.057 -0.05536,-0.14002 0,-0.0798 0.05536,-0.13514 0.05536,-0.0554 0.141654,-0.0554 z m 2.665373,2.43091 q -0.08792,0.0586 -0.213295,0.0912 -0.125371,0.0326 -0.245859,0.0326 -0.276795,0 -0.426589,-0.14491 -0.149795,-0.14491 -0.149795,-0.37286 v -1.02251 H 14.49591 v -0.21167 h 0.394026 v -0.38914 l 0.273538,-0.0326 v 0.4217 h 0.592667 l -0.03256,0.21167 h -0.560103 v 1.01926 q 0,0.14328 0.0749,0.21818 0.07653,0.0749 0.252371,0.0749 0.09606,0 0.177475,-0.0228 0.08141,-0.0228 0.151423,-0.0586 z m 1.367694,-0.11235 q 0.128628,0 0.239346,-0.0423 0.112346,-0.0423 0.206782,-0.10746 l 0.133513,0.1791 q -0.112346,0.0961 -0.270282,0.15142 -0.157936,0.0554 -0.309359,0.0554 -0.255628,0 -0.436359,-0.10909 -0.179103,-0.11072 -0.273538,-0.30936 -0.09444,-0.20027 -0.09444,-0.46892 0,-0.25726 0.09444,-0.46078 0.09606,-0.20516 0.275166,-0.32239 0.180731,-0.11723 0.437987,-0.11723 0.164449,0 0.307731,0.0505 0.14491,0.0488 0.265398,0.14816 l -0.133513,0.18236 q -0.10909,-0.0765 -0.219808,-0.11397 -0.10909,-0.0391 -0.223064,-0.0391 -0.221436,0 -0.364718,0.16608 -0.143282,0.16608 -0.143282,0.50637 0,0.22795 0.06513,0.37286 0.06676,0.14328 0.180731,0.21167 0.115603,0.0668 0.262141,0.0668 z m 1.45236,-2.23227 v 0.95088 q 0.100949,-0.13515 0.247487,-0.2019 0.148167,-0.0684 0.29959,-0.0684 0.250744,0 0.366346,0.13352 0.115603,0.13351 0.115603,0.37123 v 1.24557 h -0.273539 v -1.23906 q 0,-0.15468 -0.07164,-0.22469 -0.07164,-0.0716 -0.224692,-0.0716 -0.09769,0 -0.185615,0.044 -0.08792,0.044 -0.157936,0.10909 -0.07001,0.0651 -0.115603,0.13351 v 1.24883 H 18.47199 v -2.4016 z"
       id="text11"
       style="font-size:3.175px;font-family:'Fira Code';-inkscape-font-specification:'Fira Code';stroke-width:0.264583"
       aria-label="Pitch" />
    <path
       d="m 7.2617887,209.02106 0.127,2.24203 H 7.1168785 l -0.070013,-1.17068 q -0.00488,-0.11885 -0.00977,-0.24097 -0.00488,-0.12211 -0.00651,-0.23446 -0.00163,-0.11235 -0.00163,-0.20027 0,-0.0879 0,-0.13677 l -0.3777436,1.58099 H 6.3679041 l -0.405423,-1.58099 q 0.00163,0.0472 0.00326,0.14003 0.00163,0.0912 0.00163,0.20678 0.00163,0.1156 -0.00163,0.23772 -0.00163,0.12048 -0.00651,0.22469 l -0.060244,1.17393 H 5.6335836 l 0.127,-2.24203 h 0.3940257 l 0.3630897,1.53539 0.3468077,-1.53539 z m 0.8271296,0.52753 v 1.21465 q 0,0.16933 0.070013,0.24423 0.070013,0.0749 0.2181794,0.0749 0.1416539,0 0.2670257,-0.0798 0.127,-0.0814 0.1970128,-0.19213 v -1.26186 h 0.2735385 v 1.7145 H 8.8818542 l -0.022795,-0.2312 q -0.1009488,0.13026 -0.2491154,0.20027 -0.1481667,0.0684 -0.2995898,0.0684 -0.2491153,0 -0.3728589,-0.13188 -0.1221154,-0.13351 -0.1221154,-0.37286 v -1.24721 z m 2.3478737,-0.69035 v 1.98152 q 0,0.127 0.07815,0.18073 0.07978,0.0521 0.205154,0.0521 0.07815,0 0.148167,-0.0163 0.07001,-0.0163 0.140025,-0.044 l 0.07327,0.20027 q -0.07001,0.0342 -0.174218,0.0602 -0.102577,0.0277 -0.232834,0.0277 -0.227948,0 -0.369602,-0.12537 -0.141654,-0.127 -0.141654,-0.35006 v -1.75032 H 9.6373428 v -0.21655 z m 2.647463,2.31856 q -0.08792,0.0586 -0.213295,0.0912 -0.125372,0.0326 -0.245859,0.0326 -0.276795,0 -0.42659,-0.14491 -0.149795,-0.14491 -0.149795,-0.37286 v -1.02251 H 11.65469 v -0.21167 h 0.394026 v -0.38914 l 0.273539,-0.0326 v 0.4217 h 0.592666 l -0.03256,0.21167 h -0.560102 v 1.01926 q 0,0.14328 0.0749,0.21818 0.07653,0.0749 0.252372,0.0749 0.09606,0 0.177474,-0.0228 0.08141,-0.0228 0.151423,-0.0586 z m 1.460501,-1.62821 v 1.49795 h 0.483577 v 0.21655 h -1.286282 v -0.21655 h 0.529166 v -1.28139 h -0.512884 v -0.21656 z m -0.21818,-0.8027 q 0.09118,0 0.144911,0.0554 0.05536,0.0554 0.05536,0.13514 0,0.083 -0.05536,0.14002 -0.05373,0.0554 -0.144911,0.0554 -0.08629,0 -0.141654,-0.0554 -0.05536,-0.057 -0.05536,-0.14002 0,-0.0798 0.05536,-0.13514 0.05536,-0.0554 0.141654,-0.0554 z m 2.071078,0.76688 q 0.227949,0 0.36309,0.11072 0.136769,0.11072 0.197013,0.31262 0.06024,0.20027 0.06024,0.46892 0,0.25888 -0.07327,0.46241 -0.07164,0.2019 -0.218179,0.3175 -0.146539,0.1156 -0.369603,0.1156 -0.281679,0 -0.452641,-0.19864 v 0.81736 l -0.273538,0.0342 v -2.40486 h 0.232833 l 0.0228,0.23935 q 0.09444,-0.13188 0.224692,-0.20353 0.131885,-0.0716 0.286564,-0.0716 z m -0.06513,0.21981 q -0.141654,0 -0.250743,0.0863 -0.107462,0.0847 -0.177475,0.18887 v 0.84992 q 0.06676,0.0993 0.167705,0.15794 0.102577,0.057 0.224693,0.057 0.213295,0 0.320756,-0.16282 0.107462,-0.16282 0.107462,-0.50637 0,-0.22469 -0.04233,-0.37286 -0.04233,-0.14979 -0.128628,-0.22306 -0.08629,-0.0749 -0.221436,-0.0749 z m 1.919656,-0.87434 v 1.98152 q 0,0.127 0.07815,0.18073 0.07978,0.0521 0.205154,0.0521 0.07815,0 0.148166,-0.0163 0.07001,-0.0163 0.140026,-0.044 l 0.07327,0.20027 q -0.07001,0.0342 -0.174218,0.0602 -0.102577,0.0277 -0.232833,0.0277 -0.227949,0 -0.369603,-0.12537 -0.141654,-0.127 -0.141654,-0.35006 v -1.75032 h -0.52591 v -0.21655 z m 2.154116,0.69035 v 1.49795 h 0.483577 v 0.21655 h -1.286282 v -0.21655 h 0.529167 v -1.28139 h -0.512885 v -0.21656 z m -0.218179,-0.8027 q 0.09118,0 0.14491,0.0554 0.05536,0.0554 0.05536,0.13514 0,0.083 -0.05536,0.14002 -0.05373,0.0554 -0.14491,0.0554 -0.08629,0 -0.141654,-0.0554 -0.05536,-0.057 -0.05536,-0.14002 0,-0.0798 0.05536,-0.13514 0.05536,-0.0554 0.141654,-0.0554 z m 1.519117,1.75683 q 0.0081,0.19864 0.07652,0.32564 0.06839,0.12538 0.180731,0.18562 0.112346,0.0586 0.244231,0.0586 0.131884,0 0.237718,-0.0391 0.107461,-0.0391 0.219807,-0.11561 l 0.128629,0.18074 q -0.120488,0.0944 -0.275167,0.14816 -0.153051,0.0537 -0.314244,0.0537 -0.249115,0 -0.424961,-0.11234 -0.175846,-0.11235 -0.268654,-0.31262 -0.09118,-0.2019 -0.09118,-0.46729 0,-0.26052 0.09281,-0.46241 0.09281,-0.2019 0.260513,-0.3175 0.167705,-0.11561 0.395654,-0.11561 0.216551,0 0.372859,0.10258 0.156308,0.10095 0.239346,0.28982 0.08467,0.18724 0.08467,0.44776 0,0.044 -0.0016,0.083 -0.0016,0.0374 -0.0049,0.0667 z m 0.465666,-0.76525 q -0.1905,0 -0.319128,0.13514 -0.127,0.13514 -0.14491,0.41845 h 0.893884 q -0.0049,-0.27517 -0.120487,-0.41357 -0.115602,-0.14002 -0.309359,-0.14002 z m 1.28954,1.52562 v -0.21003 h 0.267025 v -1.29443 H 23.46244 v -0.21004 h 0.475435 l 0.05047,0.40543 q 0.09932,-0.21167 0.240974,-0.32727 0.141654,-0.1156 0.374487,-0.1156 0.07164,0 0.127,0.0114 0.05699,0.01 0.115603,0.026 l -0.07978,0.24424 q -0.05373,-0.0147 -0.09769,-0.0212 -0.04396,-0.008 -0.100949,-0.008 -0.197013,0 -0.338667,0.14002 -0.141654,0.14003 -0.22632,0.42334 v 0.72618 h 0.348436 v 0.21003 z m 1.120205,-1.13485 v -0.37286 l 0.02768,-0.20679 h 0.23609 l -0.03908,0.57965 z"
       id="text12"
       style="font-size:3.175px;font-family:'Fira Code';-inkscape-font-specification:'Fira Code';stroke-width:0.264583"
       aria-label="Multiplier" />
    <path
       d="m 11.879381,224.39017 q 0,-0.29308 -0.06187,-0.46893 -0.06187,-0.17584 -0.16282,-0.26377 -0.100949,-0.0879 -0.221436,-0.11723 -0.118859,-0.0293 -0.234462,-0.0293 h -0.263769 v 1.78452 h 0.267026 q 0.120487,0 0.239346,-0.0375 0.120487,-0.0391 0.219808,-0.13677 0.09932,-0.0993 0.157936,-0.27517 0.06024,-0.17747 0.06024,-0.45589 z m 0.301218,0 q 0,0.28005 -0.06024,0.47869 -0.05862,0.19701 -0.161193,0.32564 -0.102577,0.12863 -0.234461,0.20027 -0.130257,0.07 -0.275167,0.0993 -0.143282,0.0277 -0.281679,0.0277 h -0.514513 v -2.24204 h 0.478692 q 0.197013,0 0.382628,0.044 0.187244,0.044 0.337039,0.16282 0.151423,0.11723 0.239346,0.33541 0.08955,0.21818 0.08955,0.56825 z m 0.696873,0.37123 q 0.0081,0.19864 0.07653,0.32564 0.06838,0.12537 0.180731,0.18561 0.112346,0.0586 0.244231,0.0586 0.131884,0 0.237717,-0.0391 0.107462,-0.0391 0.219808,-0.1156 l 0.128628,0.18073 q -0.120487,0.0944 -0.275166,0.14817 -0.153052,0.0537 -0.314244,0.0537 -0.249115,0 -0.424961,-0.11235 -0.175847,-0.11235 -0.268654,-0.31261 -0.09118,-0.2019 -0.09118,-0.4673 0,-0.26051 0.09281,-0.46241 0.09281,-0.2019 0.260513,-0.3175 0.167705,-0.1156 0.395654,-0.1156 0.216551,0 0.372859,0.10257 0.156307,0.10095 0.239346,0.28982 0.08467,0.18725 0.08467,0.44776 0,0.044 -0.0016,0.083 -0.0016,0.0375 -0.0049,0.0668 z m 0.465667,-0.76526 q -0.1905,0 -0.319128,0.13514 -0.127,0.13514 -0.14491,0.41845 h 0.893884 q -0.0049,-0.27517 -0.120487,-0.41356 -0.115603,-0.14003 -0.309359,-0.14003 z m 2.040142,-0.22469 q 0.227949,0 0.36309,0.11072 0.136769,0.11071 0.197013,0.31261 0.06024,0.20027 0.06024,0.46892 0,0.25889 -0.07327,0.46241 -0.07164,0.2019 -0.218179,0.3175 -0.146539,0.11561 -0.369603,0.11561 -0.281679,0 -0.452641,-0.19864 v 0.81735 l -0.273538,0.0342 v -2.40486 h 0.232833 l 0.0228,0.23934 q 0.09444,-0.13188 0.224692,-0.20352 0.131885,-0.0716 0.286564,-0.0716 z m -0.06513,0.21981 q -0.141654,0 -0.250743,0.0863 -0.107462,0.0847 -0.177475,0.18887 v 0.84992 q 0.06676,0.0993 0.167705,0.15794 0.102577,0.057 0.224693,0.057 0.213295,0 0.320756,-0.16282 0.107462,-0.16282 0.107462,-0.50637 0,-0.2247 -0.04233,-0.37286 -0.04233,-0.1498 -0.128628,-0.22307 -0.08629,-0.0749 -0.221436,-0.0749 z m 2.613271,1.44421 q -0.08792,0.0586 -0.213295,0.0912 -0.125372,0.0326 -0.245859,0.0326 -0.276795,0 -0.42659,-0.14491 -0.149795,-0.14491 -0.149795,-0.37286 v -1.02252 H 16.50186 v -0.21166 h 0.394025 v -0.38914 l 0.273539,-0.0326 v 0.42171 h 0.592667 l -0.03257,0.21166 h -0.560102 v 1.01926 q 0,0.14328 0.0749,0.21818 0.07653,0.0749 0.252372,0.0749 0.09606,0 0.177475,-0.0228 0.08141,-0.0228 0.151423,-0.0586 z m 0.866206,-2.34461 v 0.95087 q 0.100949,-0.13514 0.247488,-0.2019 0.148166,-0.0684 0.299589,-0.0684 0.250744,0 0.366346,0.13351 0.115603,0.13351 0.115603,0.37123 v 1.24558 h -0.273539 v -1.23907 q 0,-0.15468 -0.07164,-0.22469 -0.07164,-0.0716 -0.224692,-0.0716 -0.09769,0 -0.185615,0.044 -0.08792,0.044 -0.157936,0.10909 -0.07001,0.0651 -0.115603,0.13351 v 1.24884 h -0.273538 v -2.4016 z"
       id="text13"
       style="font-size:3.175px;font-family:'Fira Code';-inkscape-font-specification:'Fira Code';stroke-width:0.264583"
       aria-label="Depth" />
    <path
       d="m 10.50599,252.16345 v 2.17691 h -0.273539 v -1.88057 l -0.5145125,0.31261 -0.118859,-0.19538 0.6675645,-0.41357 z m 0.468923,2.01898 v 0.22306 H 9.6804898 v -0.22306 z m 1.252091,-0.0977 0.605692,-1.92129 h 0.284936 l -0.750602,2.24204 h -0.293077 l -0.750603,-2.24204 h 0.304474 z m 1.362809,0.65616 -0.221436,-0.0977 1.393744,-2.87378 0.218179,0.10746 z m 3.363873,-1.45398 q 0,0.33866 -0.09281,0.6008 -0.09118,0.26052 -0.275167,0.40868 -0.183987,0.14654 -0.457526,0.14654 -0.27191,0 -0.457525,-0.14328 -0.183988,-0.14491 -0.276795,-0.4038 -0.09118,-0.25888 -0.09118,-0.60569 0,-0.34029 0.09118,-0.60243 0.09281,-0.26214 0.276795,-0.41031 0.185615,-0.1498 0.457525,-0.1498 0.273539,0 0.457526,0.14491 0.183987,0.14491 0.275167,0.40543 0.09281,0.26051 0.09281,0.60895 z m -0.296333,0 q 0,-0.44776 -0.123744,-0.68548 -0.122115,-0.23772 -0.405423,-0.23772 -0.283307,0 -0.407051,0.23935 -0.122115,0.23935 -0.122115,0.6871 0,0.44776 0.127,0.68222 0.127,0.23283 0.402166,0.23283 0.283308,0 0.405423,-0.23446 0.123744,-0.23609 0.123744,-0.68384 z m 1.613552,-1.15929 q 0.219808,0 0.367975,0.0554 0.148167,0.0554 0.281679,0.16282 l -0.157936,0.18399 q -0.105833,-0.0896 -0.224692,-0.127 -0.117231,-0.0391 -0.245859,-0.0391 -0.183987,0 -0.340295,0.0879 -0.156307,0.0863 -0.252371,0.28819 -0.09444,0.20027 -0.09444,0.54382 0,0.33378 0.08955,0.53568 0.09118,0.2019 0.245859,0.29145 0.154679,0.0895 0.345179,0.0895 0.188872,0 0.309359,-0.057 0.122116,-0.057 0.211667,-0.13025 l 0.146538,0.18561 q -0.102576,0.0993 -0.267025,0.17259 -0.164449,0.0716 -0.403795,0.0716 -0.27191,0 -0.493346,-0.13351 -0.219808,-0.13351 -0.348436,-0.39077 -0.128628,-0.25888 -0.128628,-0.635 0,-0.37774 0.130256,-0.635 0.131885,-0.25726 0.350064,-0.38914 0.219808,-0.13189 0.478692,-0.13189 z m 1.900117,0.27843 v 1.99943 h -0.281679 v -1.99943 h -0.700129 v -0.24261 h 1.691706 l -0.02931,0.24261 z"
       id="text14"
       style="font-size:3.175px;font-family:'Fira Code';-inkscape-font-specification:'Fira Code';stroke-width:0.264583"
       aria-label="1V/OCT" />
    <path
       d="m 11.237868,276.42735 q 0,0.33867 -0.09281,0.60081 -0.09118,0.26051 -0.275166,0.40868 -0.183988,0.14654 -0.457526,0.14654 -0.27191,0 -0.4575257,-0.14328 -0.1839872,-0.14491 -0.2767949,-0.4038 -0.09118,-0.25888 -0.09118,-0.60569 0,-0.3403 0.09118,-0.60244 0.092808,-0.26214 0.2767949,-0.41031 0.1856157,-0.14979 0.4575257,-0.14979 0.273538,0 0.457526,0.14491 0.183987,0.14491 0.275166,0.40542 0.09281,0.26052 0.09281,0.60895 z m -0.296333,0 q 0,-0.44775 -0.123744,-0.68547 -0.122115,-0.23772 -0.405423,-0.23772 -0.283308,0 -0.407051,0.23935 -0.1221158,0.23934 -0.1221158,0.6871 0,0.44775 0.1269998,0.68222 0.127,0.23283 0.402167,0.23283 0.283308,0 0.405423,-0.23446 0.123744,-0.23609 0.123744,-0.68385 z m 1.048565,-0.59592 v 1.21464 q 0,0.16933 0.07001,0.24423 0.07001,0.0749 0.218179,0.0749 0.141654,0 0.267026,-0.0798 0.127,-0.0814 0.197013,-0.19213 v -1.26186 h 0.273538 v 1.7145 h -0.232833 l -0.02279,-0.23121 q -0.100949,0.13026 -0.249115,0.20027 -0.148167,0.0684 -0.29959,0.0684 -0.249115,0 -0.372859,-0.13189 -0.122115,-0.13351 -0.122115,-0.37286 v -1.2472 z m 3.041489,1.6282 q -0.08792,0.0586 -0.213295,0.0912 -0.125372,0.0326 -0.245859,0.0326 -0.276795,0 -0.42659,-0.14491 -0.149795,-0.14491 -0.149795,-0.37286 v -1.02251 h -0.394026 v -0.21167 h 0.394026 v -0.38914 l 0.273539,-0.0326 v 0.42171 h 0.592666 l -0.03256,0.21167 h -0.560102 v 1.01925 q 0,0.14328 0.0749,0.21818 0.07653,0.0749 0.252372,0.0749 0.09606,0 0.177474,-0.0228 0.08141,-0.0228 0.151423,-0.0586 z m 1.359552,-1.66402 q 0.227949,0 0.36309,0.11072 0.136769,0.11071 0.197013,0.31261 0.06024,0.20027 0.06024,0.46892 0,0.25889 -0.07327,0.46242 -0.07164,0.20189 -0.218179,0.3175 -0.146539,0.1156 -0.369603,0.1156 -0.281679,0 -0.452641,-0.19864 v 0.81736 l -0.273538,0.0342 v -2.40486 h 0.232833 l 0.0228,0.23935 q 0.09444,-0.13189 0.224692,-0.20353 0.131885,-0.0716 0.286564,-0.0716 z m -0.06513,0.21981 q -0.141654,0 -0.250743,0.0863 -0.107462,0.0847 -0.177475,0.18887 v 0.84993 q 0.06676,0.0993 0.167705,0.15793 0.102577,0.057 0.224693,0.057 0.213295,0 0.320756,-0.16282 0.107462,-0.16282 0.107462,-0.50637 0,-0.2247 -0.04233,-0.37286 -0.04233,-0.1498 -0.128628,-0.22307 -0.08629,-0.0749 -0.221436,-0.0749 z m 1.52563,-0.18399 v 1.21464 q 0,0.16933 0.07001,0.24423 0.07001,0.0749 0.21818,0.0749 0.141654,0 0.267026,-0.0798 0.127,-0.0814 0.197012,-0.19213 v -1.26186 h 0.273539 v 1.7145 h -0.232833 l -0.02279,-0.23121 q -0.100949,0.13026 -0.249116,0.20027 -0.148166,0.0684 -0.299589,0.0684 -0.249116,0 -0.372859,-0.13189 -0.122116,-0.13351 -0.122116,-0.37286 v -1.2472 z m 3.041488,1.6282 q -0.08792,0.0586 -0.213295,0.0912 -0.125372,0.0326 -0.245859,0.0326 -0.276795,0 -0.42659,-0.14491 -0.149794,-0.14491 -0.149794,-0.37286 v -1.02251 h -0.394026 v -0.21167 h 0.394026 v -0.38914 l 0.273538,-0.0326 v 0.42171 h 0.592667 l -0.03256,0.21167 h -0.560103 v 1.01925 q 0,0.14328 0.0749,0.21818 0.07653,0.0749 0.252372,0.0749 0.09606,0 0.177475,-0.0228 0.08141,-0.0228 0.151423,-0.0586 z"
       id="text15"
       style="font-size:3.175px;font-family:'Fira Code';-inkscape-font-specification:'Fira Code';stroke-width:0.264583"
       aria-label="Output" />
    <path
       d="m 11.81751,238.6798 q 0,-0.29308 -0.06187,-0.46892 -0.06187,-0.17585 -0.162821,-0.26377 -0.100948,-0.0879 -0.221435,-0.11723 -0.118859,-0.0293 -0.234462,-0.0293 h -0.263769 v 1.78451 h 0.267025 q 0.120488,0 0.239347,-0.0375 0.120487,-0.0391 0.219807,-0.13677 0.09932,-0.0993 0.157936,-0.27516 0.06024,-0.17748 0.06024,-0.4559 z m 0.301218,0 q 0,0.28005 -0.06024,0.47869 -0.05861,0.19701 -0.161192,0.32564 -0.102577,0.12863 -0.234462,0.20027 -0.130256,0.07 -0.275166,0.0993 -0.143282,0.0277 -0.28168,0.0277 h -0.514513 v -2.24204 h 0.478693 q 0.197012,0 0.382628,0.044 0.187243,0.044 0.337038,0.16282 0.151423,0.11724 0.239346,0.33542 0.08955,0.21817 0.08955,0.56824 z m 0.696873,0.37123 q 0.0081,0.19864 0.07653,0.32564 0.06839,0.12537 0.180731,0.18562 0.112346,0.0586 0.244231,0.0586 0.131885,0 0.237718,-0.0391 0.107461,-0.0391 0.219808,-0.1156 l 0.128628,0.18073 q -0.120487,0.0944 -0.275167,0.14817 -0.153051,0.0537 -0.314243,0.0537 -0.249116,0 -0.424962,-0.11235 -0.175846,-0.11234 -0.268654,-0.31261 -0.09118,-0.2019 -0.09118,-0.4673 0,-0.26051 0.09281,-0.46241 0.09281,-0.20189 0.260513,-0.3175 0.167705,-0.1156 0.395654,-0.1156 0.216551,0 0.372859,0.10258 0.156308,0.10095 0.239346,0.28982 0.08467,0.18724 0.08467,0.44775 0,0.044 -0.0016,0.083 -0.0016,0.0374 -0.0049,0.0668 z m 0.465666,-0.76526 q -0.1905,0 -0.319128,0.13514 -0.127,0.13515 -0.14491,0.41845 h 0.893885 q -0.0049,-0.27516 -0.120488,-0.41356 -0.115602,-0.14003 -0.309359,-0.14003 z m 1.940822,-0.87923 v 1.98153 q 0,0.127 0.07815,0.18073 0.07978,0.0521 0.205154,0.0521 0.07815,0 0.148167,-0.0163 0.07001,-0.0163 0.140025,-0.044 l 0.07327,0.20027 q -0.07001,0.0342 -0.174218,0.0602 -0.102577,0.0277 -0.232834,0.0277 -0.227948,0 -0.369602,-0.12537 -0.141654,-0.127 -0.141654,-0.35007 v -1.75032 h -0.52591 v -0.21655 z m 2.513951,2.03037 q 0,0.10258 0.03419,0.1498 0.03419,0.0472 0.105833,0.07 l -0.06676,0.19213 q -0.110718,-0.0146 -0.193757,-0.07 -0.08304,-0.057 -0.120487,-0.17096 -0.09281,0.11885 -0.231205,0.18073 -0.138397,0.0602 -0.306102,0.0602 -0.257257,0 -0.405424,-0.14491 -0.148166,-0.14491 -0.148166,-0.38426 0,-0.26539 0.206782,-0.40705 0.206782,-0.14165 0.597551,-0.14165 h 0.252372 v -0.14328 q 0,-0.18562 -0.10909,-0.26214 -0.107461,-0.0782 -0.29959,-0.0782 -0.08467,0 -0.198641,0.0212 -0.113974,0.0195 -0.247487,0.0667 l -0.07164,-0.20678 q 0.157936,-0.0586 0.296334,-0.083 0.138397,-0.0244 0.263769,-0.0244 0.320756,0 0.48032,0.1498 0.161193,0.14816 0.161193,0.40379 z m -0.70827,0.20353 q 0.127,0 0.242603,-0.0635 0.115602,-0.0651 0.1905,-0.1791 v -0.44125 h -0.247487 q -0.283308,0 -0.400539,0.0977 -0.115602,0.0977 -0.115602,0.26214 0,0.15956 0.08141,0.2426 0.08304,0.0814 0.249115,0.0814 z m 2.860758,-1.54354 -0.602436,1.7259 q -0.06024,0.17422 -0.153051,0.31913 -0.09118,0.14491 -0.239346,0.23934 -0.146539,0.0961 -0.372859,0.11886 l -0.04233,-0.21818 q 0.177475,-0.0293 0.280052,-0.0896 0.102577,-0.0602 0.161192,-0.15468 0.06024,-0.0944 0.105833,-0.22632 H 18.9344 l -0.59918,-1.7145 h 0.293077 l 0.491718,1.50609 0.485205,-1.50609 z"
       id="text3"
       style="font-size:3.175px;font-family:'Fira Code';-inkscape-font-specification:'Fira Code';stroke-width:0.264583"
       aria-label="Delay" />
  </g>
  <g
     inkscape:groupmode="layer"
     id="layer2"
     inkscape:label="components"
     style="display:none">
    <circle
       style="display:inline;vector-effect:none;fill:#ff0000;fill-opacity:1;fill-rule:evenodd;stroke:none;stroke-width:1;stroke-linecap:butt;stroke-linejoin:miter;stroke-miterlimit:4;stroke-dasharray:none;stroke-dashoffset:0;stroke-opacity:1;paint-order:normal"
       id="path4954"
       cx="15.24"
       cy="23.876364"
       r="4"
       inkscape:label="pitch" />
    <circle
       style="display:inline;vector-effect:none;fill:#0000ff;fill-opacity:1;fill-rule:evenodd;stroke:none;stroke-width:1;stroke-linecap:butt;stroke-linejoin:miter;stroke-miterlimit:4;stroke-dasharray:none;stroke-dashoffset:0;stroke-opacity:1;paint-order:normal"
       id="circle4958"
       cx="15.24"
       cy="114.72616"
       r="4"
       inkscape:label="output" />
    <circle
       r="4"
       cy="91.906082"
       cx="8.6250792"
       id="circle4956"
       style="display:inline;vector-effect:none;fill:#ff0000;fill-opacity:1;fill-rule:evenodd;stroke:none;stroke-width:1;stroke-linecap:butt;stroke-linejoin:miter;stroke-miterlimit:4;stroke-dasharray:none;stroke-dashoffset:0;stroke-opacity:1;paint-order:normal"
       inkscape:label="note" />
    <circle
       r="4"
       cy="63.302437"
       cx="8.6250792"
       id="circle1"
       style="display:inline;vector-effect:none;fill:#ff0000;fill-opacity:1;fill-rule:evenodd;stroke:none;stroke-width:1;stroke-linecap:butt;stroke-linejoin:miter;stroke-miterlimit:4;stroke-dasharray:none;stroke-dashoffset:0;stroke-opacity:1;paint-order:normal"
       inkscape:label="depth" />
    <circle
       r="4"
       cy="49.00061"
       cx="8.6250792"
       id="circle2"
       style="display:inline;vector-effect:none;fill:#ff0000;fill-opacity:1;fill-rule:evenodd;stroke:none;stroke-width:1;stroke-linecap:butt;stroke-linejoin:miter;stroke-miterlimit:4;stroke-dasharray:none;stroke-dashoffset:0;stroke-opacity:1;paint-order:normal"
       inkscape:label="multiplier" />
    <circle
       r="4"
       cy="77.604256"
       cx="8.6250792"
       id="circle3"
       style="display:inline;vector-effect:none;fill:#ff0000;fill-opacity:1;fill-rule:evenodd;stroke:none;stroke-width:1;stroke-linecap:butt;stroke-linejoin:miter;stroke-miterlimit:4;stroke-dasharray:none;stroke-dashoffset:0;stroke-opacity:1;paint-order:normal"
       inkscape:label="delay" />
    <circle
       r="4"
       cy="91.906082"
       cx="21.854919"
       id="circle4"
       style="display:inline;vector-effect:none;fill:#00ff00;fill-opacity:1;fill-rule:evenodd;stroke:none;stroke-width:1;stroke-linecap:butt;stroke-linejoin:miter;stroke-miterlimit:4;stroke-dasharray:none;stroke-dashoffset:0;stroke-opacity:1;paint-order:normal"
       inkscape:label="note" />
    <circle
       r="4"
       cy="63.302437"
       cx="21.854919"
       id="circle5"
       style="display:inline;vector-effect:none;fill:#00ff00;fill-opacity:1;fill-rule:evenodd;stroke:none;stroke-width:1;stroke-linecap:butt;stroke-linejoin:miter;stroke-miterlimit:4;stroke-dasharray:none;stroke-dashoffset:0;stroke-opacity:1;paint-order:normal"
       inkscape:label="depth" />
    <circle
       r="4"
       cy="49.00061"
       cx="21.854919"
       id="circle6"
       style="display:inline;vector-effect:none;fill:#00ff00;fill-opacity:1;fill-rule:evenodd;stroke:none;stroke-width:1;stroke-linecap:butt;stroke-linejoin:miter;stroke-miterlimit:4;stroke-dasharray:none;stroke-dashoffset:0;stroke-opacity:1;paint-order:normal"
       inkscape:label="multiplier" />
    <circle
       r="4"
       cy="77.604256"
       cx="21.854919"
       id="circle7"
       style="display:inline;vector-effect:none;fill:#00ff00;fill-opacity:1;fill-rule:evenodd;stroke:none;stroke-width:1;stroke-linecap:butt;stroke-linejoin:miter;stroke-miterlimit:4;stroke-dasharray:none;stroke-dashoffset:0;stroke-opacity:1;paint-order:normal"
       inkscape:label="delay" />
  </g>
</svg>
